<svg xmlns="http://www.w3.org/2000/svg" width="24" height="24" viewBox="-4 -4 24 24">
    <path fill="#00BCD4" stroke="#00BCD4" stroke-width=".5" d="M8 1c3.86 0 7 3.14 7 7s-3.14 7-7 7-7-3.14-7-7 3.14-7 7-7zm0 13.462c3.563 0 6.462-2.9 6.462-6.462 0-3.563-2.9-6.462-6.462-6.462-3.563 0-6.462 2.9-6.462 6.462 0 3.563 2.9 6.462 6.462 6.462zm0-3.5c.149 0 .27.12.27.269v.538c0 .15-.121.27-.27.27-.149 0-.27-.12-.27-.27v-.538c0-.15.121-.27.27-.27zm.03-7.539c1.155.017 2.107.969 2.124 2.123.01.748-.359 1.436-.988 1.842-.553.357-.897 1.02-.897 1.731v.766c0 .149-.12.269-.269.269-.149 0-.27-.12-.27-.27V9.12c0-.905.428-1.722 1.144-2.184.472-.304.749-.82.741-1.381-.012-.851-.74-1.58-1.592-1.592-.434-.01-.847.159-1.157.465-.31.306-.481.714-.481 1.15 0 .149-.12.27-.27.27-.149 0-.269-.121-.269-.27 0-.581.228-1.126.642-1.534.406-.4.942-.62 1.511-.62h.031z"/>
</svg>
